<?xml version="1.0" encoding="utf-8"?>
<!-- Generator: Adobe Illustrator 27.5.0, SVG Export Plug-In . SVG Version: 6.00 Build 0)  -->
<svg version="1.1" xmlns="http://www.w3.org/2000/svg" xmlns:xlink="http://www.w3.org/1999/xlink" x="0px" y="0px"
	 viewBox="0 0 500 500" style="enable-background:new 0 0 500 500;" xml:space="preserve">
<g id="Background">
	<radialGradient id="SVGID_1_" cx="250" cy="250" r="320.5825" gradientUnits="userSpaceOnUse">
		<stop  offset="0" style="stop-color:#FFFFFF"/>
		<stop  offset="0.2727" style="stop-color:#FBFBFB"/>
		<stop  offset="0.5556" style="stop-color:#EEEEEE"/>
		<stop  offset="0.8423" style="stop-color:#DADADA"/>
		<stop  offset="1" style="stop-color:#CBCBCB"/>
	</radialGradient>
	<rect style="fill:url(#SVGID_1_);" width="500" height="500"/>
</g>
<g id="Objects">
	<g>
		<g>
			<g>
				<g>
					
						<linearGradient id="SVGID_00000113350267073578309170000003726061371702301609_" gradientUnits="userSpaceOnUse" x1="253.4422" y1="140.7641" x2="312.6287" y2="140.7641" gradientTransform="matrix(0.7071 0.7071 -0.7071 0.7071 224.4633 -97.4587)">
						<stop  offset="0" style="stop-color:#4776E6"/>
						<stop  offset="0.1822" style="stop-color:#477CE6"/>
						<stop  offset="0.4228" style="stop-color:#478DE6"/>
						<stop  offset="0.6962" style="stop-color:#47A8E6"/>
						<stop  offset="0.9918" style="stop-color:#47CEE6"/>
						<stop  offset="1" style="stop-color:#47CFE6"/>
					</linearGradient>
					<path style="fill:url(#SVGID_00000113350267073578309170000003726061371702301609_);" d="M321.743,241.096
						c-1.293-1.293-1.699-3.308-0.869-5.052c10.219-21.465,10.342-46.143,0.336-67.707c-1.032-2.226-0.065-4.867,2.161-5.9
						c2.226-1.033,4.867-0.066,5.901,2.161c11.122,23.971,10.986,51.405-0.374,75.266c-1.054,2.215-3.706,3.156-5.921,2.102
						C322.505,241.741,322.092,241.445,321.743,241.096z"/>
				</g>
				<g>
					
						<linearGradient id="SVGID_00000059310736610770989010000017502389403643175307_" gradientUnits="userSpaceOnUse" x1="147.0347" y1="138.9405" x2="206.7237" y2="138.9405" gradientTransform="matrix(0.7071 0.7071 -0.7071 0.7071 224.4633 -97.4587)">
						<stop  offset="0" style="stop-color:#4776E6"/>
						<stop  offset="0.1822" style="stop-color:#477CE6"/>
						<stop  offset="0.4228" style="stop-color:#478DE6"/>
						<stop  offset="0.6962" style="stop-color:#47A8E6"/>
						<stop  offset="0.9918" style="stop-color:#47CEE6"/>
						<stop  offset="1" style="stop-color:#47CFE6"/>
					</linearGradient>
					<path style="fill:url(#SVGID_00000059310736610770989010000017502389403643175307_);" d="M212.403,128.822
						c-0.359-0.359-0.661-0.785-0.888-1.272c-1.032-2.226-0.065-4.868,2.161-5.901c23.971-11.122,51.405-10.986,75.266,0.374
						c2.216,1.053,3.157,3.705,2.102,5.922c-1.055,2.215-3.706,3.156-5.921,2.102c-21.465-10.219-46.143-10.342-67.707-0.336
						C215.677,130.518,213.685,130.104,212.403,128.822z"/>
				</g>
				<g>
					
						<linearGradient id="SVGID_00000034069328776433421450000010628970367049144496_" gradientUnits="userSpaceOnUse" x1="145.4628" y1="245.0971" x2="204.6493" y2="245.0971" gradientTransform="matrix(0.7071 0.7071 -0.7071 0.7071 224.4633 -97.4587)">
						<stop  offset="0" style="stop-color:#4776E6"/>
						<stop  offset="0.1822" style="stop-color:#477CE6"/>
						<stop  offset="0.4228" style="stop-color:#478DE6"/>
						<stop  offset="0.6962" style="stop-color:#47A8E6"/>
						<stop  offset="0.9918" style="stop-color:#47CEE6"/>
						<stop  offset="1" style="stop-color:#47CFE6"/>
					</linearGradient>
					<path style="fill:url(#SVGID_00000034069328776433421450000010628970367049144496_);" d="M171.617,238.517
						c-0.359-0.359-0.661-0.785-0.888-1.272c-11.122-23.971-10.986-51.405,0.374-75.266c1.055-2.215,3.706-3.157,5.921-2.102
						c2.214,1.054,3.156,3.705,2.102,5.921c-10.219,21.465-10.342,46.143-0.336,67.707c1.032,2.226,0.065,4.868-2.161,5.901
						C174.891,240.212,172.898,239.798,171.617,238.517z"/>
				</g>
				<g>
					
						<linearGradient id="SVGID_00000176757467668286546630000015801545115212437411_" gradientUnits="userSpaceOnUse" x1="251.3677" y1="246.9201" x2="311.0563" y2="246.9201" gradientTransform="matrix(0.7071 0.7071 -0.7071 0.7071 224.4633 -97.4587)">
						<stop  offset="0" style="stop-color:#4776E6"/>
						<stop  offset="0.1822" style="stop-color:#477CE6"/>
						<stop  offset="0.4228" style="stop-color:#478DE6"/>
						<stop  offset="0.6962" style="stop-color:#47A8E6"/>
						<stop  offset="0.9918" style="stop-color:#47CEE6"/>
						<stop  offset="1" style="stop-color:#47CFE6"/>
					</linearGradient>
					<path style="fill:url(#SVGID_00000176757467668286546630000015801545115212437411_);" d="M209.825,278.949
						c-1.293-1.293-1.7-3.307-0.869-5.052c1.055-2.216,3.706-3.157,5.921-2.102c8.98,4.275,18.587,6.801,28.555,7.507
						c2.47,0.175,4.979,0.236,7.459,0.18c11.053-0.249,21.716-2.722,31.692-7.351c2.226-1.033,4.868-0.066,5.901,2.16
						c1.033,2.226,0.066,4.868-2.16,5.901c-11.094,5.148-22.948,7.898-35.233,8.175c-2.755,0.062-5.543-0.005-8.287-0.2
						c-11.079-0.785-21.76-3.594-31.746-8.348C210.587,279.594,210.174,279.298,209.825,278.949z"/>
				</g>
			</g>
			<g>
				<path style="fill:none;stroke:#F2F2F2;stroke-width:10;stroke-miterlimit:10;" d="M162.827,200.321"/>
			</g>
			<g>
				
					<linearGradient id="SVGID_00000097502303854814329010000005143426619355470498_" gradientUnits="userSpaceOnUse" x1="330.0901" y1="86.2774" x2="266.234" y2="143.4119">
					<stop  offset="0" style="stop-color:#8E54E9"/>
					<stop  offset="0.5936" style="stop-color:#6567E7"/>
					<stop  offset="1" style="stop-color:#4776E6"/>
				</linearGradient>
				<path style="fill:url(#SVGID_00000097502303854814329010000005143426619355470498_);" d="M322.471,134.737l-40.095,40.094
					l-6.288-6.288l4.698-4.686l7.654-7.654c-18.876-16.238-45.641-18.57-66.789-6.995c-1.731,0.942-3.874,0.648-5.263-0.754
					c-2.096-2.096-1.601-5.629,1.001-7.042c24.516-13.424,55.614-10.586,77.34,8.49l16.344-16.344l5.122-5.111
					c0.071,1.578,0.706,3.144,1.919,4.369C319.315,134.019,320.882,134.667,322.471,134.737z"/>
				<g>
					
						<linearGradient id="SVGID_00000147218890892290629640000014887298372773758372_" gradientUnits="userSpaceOnUse" x1="352.8331" y1="101.2517" x2="285.4455" y2="161.546">
						<stop  offset="0" style="stop-color:#8E54E9"/>
						<stop  offset="0.5936" style="stop-color:#6567E7"/>
						<stop  offset="1" style="stop-color:#4776E6"/>
					</linearGradient>
					<path style="fill:url(#SVGID_00000147218890892290629640000014887298372773758372_);" d="M331.88,119.041
						c-5.028-5.028-13.188-5.028-18.216,0c-3.921,3.921-4.781,9.75-2.591,14.519c0.624,1.342,1.484,2.59,2.591,3.697
						c1.107,1.107,2.355,1.967,3.697,2.591c4.769,2.19,10.598,1.331,14.519-2.591C336.908,132.229,336.908,124.069,331.88,119.041z
						 M327.44,132.818c-1.366,1.366-3.179,2.002-4.969,1.919c-1.59-0.071-3.156-0.718-4.357-1.919
						c-1.213-1.225-1.849-2.791-1.919-4.369c-0.082-1.79,0.553-3.603,1.919-4.969c2.567-2.579,6.747-2.579,9.326,0
						C330.019,126.059,330.019,130.239,327.44,132.818z"/>
				</g>
			</g>
			<g>
				
					<linearGradient id="SVGID_00000150806807394657925060000011184086210809705146_" gradientUnits="userSpaceOnUse" x1="231.5358" y1="103.2081" x2="231.1575" y2="296.2498">
					<stop  offset="0" style="stop-color:#8E54E9"/>
					<stop  offset="0.5936" style="stop-color:#6567E7"/>
					<stop  offset="1" style="stop-color:#4776E6"/>
				</linearGradient>
				<path style="fill:url(#SVGID_00000150806807394657925060000011184086210809705146_);" d="M282.636,260.449
					c-9.22,5.063-19.547,7.925-30.298,8.29l-0.023,0.024l-1.837,0.023c-9.479,0.071-18.687-1.802-27.377-5.534
					c-6.523-2.826-12.505-6.629-17.828-11.316l-21.466,21.466c-0.059-1.59-0.695-3.156-1.919-4.368
					c-1.213-1.225-2.779-1.861-4.369-1.919l5.122-5.111l16.332-16.332l6.3-6.3l7.654-7.654l4.698-4.71l1.507,1.507l3.215,3.215
					l1.566,1.566l-4.722,4.71l-7.63,7.63c4.533,3.898,9.573,7.077,15.061,9.444c7.277,3.144,14.99,4.757,22.926,4.816l0.883-0.012
					c9.903-0.071,19.429-2.567,27.895-7.218c1.743-0.954,3.898-0.671,5.299,0.73C285.721,255.492,285.226,259.013,282.636,260.449z"
					/>
				<g>
					
						<linearGradient id="SVGID_00000139980705428713065990000005841553952863050426_" gradientUnits="userSpaceOnUse" x1="177.6716" y1="47.9987" x2="177.1701" y2="303.8615">
						<stop  offset="0" style="stop-color:#8E54E9"/>
						<stop  offset="0.5936" style="stop-color:#6567E7"/>
						<stop  offset="1" style="stop-color:#4776E6"/>
					</linearGradient>
					<path style="fill:url(#SVGID_00000139980705428713065990000005841553952863050426_);" d="M188.929,268.28
						c-0.624-1.331-1.484-2.59-2.591-3.697s-2.367-1.966-3.697-2.579c-4.757-2.202-10.598-1.342-14.519,2.579
						c-5.028,5.028-5.028,13.188,0,18.216c5.028,5.028,13.188,5.028,18.216,0C190.259,278.878,191.119,273.037,188.929,268.28z
						 M181.887,278.359c-2.567,2.579-6.747,2.579-9.326,0c-2.579-2.579-2.579-6.759,0-9.326c1.366-1.366,3.179-2.002,4.957-1.919
						c1.59,0.059,3.156,0.695,4.369,1.919c1.225,1.213,1.861,2.779,1.919,4.368C183.889,275.18,183.253,276.993,181.887,278.359z"/>
				</g>
			</g>
			<g>
				<g>
					
						<linearGradient id="SVGID_00000146465291910955950300000007598290507307148682_" gradientUnits="userSpaceOnUse" x1="197.3608" y1="-1291.004" x2="191.3528" y2="1774.3014">
						<stop  offset="0" style="stop-color:#8E54E9"/>
						<stop  offset="0.5936" style="stop-color:#6567E7"/>
						<stop  offset="1" style="stop-color:#4776E6"/>
					</linearGradient>
					<path style="fill:url(#SVGID_00000146465291910955950300000007598290507307148682_);" d="M208.299,159.23
						c-11.022,11.022-17.157,25.693-17.274,41.284c-0.059,8.113,1.602,16.332,4.816,23.786c0.742,1.707,1.543,3.368,2.426,4.981
						c0.954,1.731,0.648,3.874-0.742,5.264c-2.096,2.108-5.628,1.59-7.053-1.013c-1.024-1.849-1.955-3.756-2.803-5.711
						c-3.744-8.69-5.605-17.91-5.522-27.377c0.118-16.45,6.052-32.005,16.827-44.263l-21.443-21.443
						c1.59-0.071,3.156-0.718,4.357-1.919c1.225-1.225,1.861-2.791,1.919-4.369l5.122,5.111l22.632,22.632
						C210.442,157.157,209.358,158.17,208.299,159.23z"/>
					<g>
						
							<linearGradient id="SVGID_00000116199299582614056450000003628750675543434924_" gradientUnits="userSpaceOnUse" x1="177.4704" y1="5.131" x2="176.9688" y2="261.0238">
							<stop  offset="0" style="stop-color:#8E54E9"/>
							<stop  offset="0.5936" style="stop-color:#6567E7"/>
							<stop  offset="1" style="stop-color:#4776E6"/>
						</linearGradient>
						<path style="fill:url(#SVGID_00000116199299582614056450000003628750675543434924_);" d="M186.338,119.041
							c-5.028-5.028-13.188-5.028-18.216,0s-5.028,13.188,0,18.216c3.921,3.921,9.762,4.781,14.519,2.591
							c1.331-0.624,2.59-1.495,3.697-2.591c1.107-1.107,1.966-2.355,2.591-3.697C191.119,128.791,190.259,122.962,186.338,119.041z
							 M181.887,132.818c-1.201,1.201-2.767,1.849-4.357,1.919c-1.79,0.082-3.603-0.553-4.969-1.919
							c-2.579-2.579-2.579-6.759,0-9.338c2.579-2.579,6.759-2.579,9.326,0c1.366,1.366,2.002,3.179,1.919,4.969
							C183.747,130.027,183.112,131.593,181.887,132.818z"/>
					</g>
				</g>
				<g>
					
						<linearGradient id="SVGID_00000154388687745017682560000005300744434005581984_" gradientUnits="userSpaceOnUse" x1="308.4016" y1="-1249.5009" x2="302.3939" y2="1815.6741">
						<stop  offset="0" style="stop-color:#8E54E9"/>
						<stop  offset="0.5936" style="stop-color:#6567E7"/>
						<stop  offset="1" style="stop-color:#4776E6"/>
					</linearGradient>
					<path style="fill:url(#SVGID_00000154388687745017682560000005300744434005581984_);" d="M322.471,267.114
						c-1.578,0.059-3.144,0.695-4.368,1.919c-1.201,1.201-1.849,2.767-1.919,4.357l-27.754-27.754
						c1.13-0.954,2.214-1.966,3.262-3.014c18.946-18.946,22.29-47.666,10.032-70.063c-0.365-0.671-0.542-1.401-0.542-2.131
						c0-1.142,0.436-2.273,1.295-3.132c2.084-2.084,5.617-1.601,7.03,0.989c13.436,24.516,10.598,55.638-8.49,77.375l16.332,16.332
						L322.471,267.114z"/>
					<g>
						
							<linearGradient id="SVGID_00000096045882211628977360000004958843744314350737_" gradientUnits="userSpaceOnUse" x1="323.0125" y1="151.0773" x2="322.5109" y2="406.9706">
							<stop  offset="0" style="stop-color:#8E54E9"/>
							<stop  offset="0.5936" style="stop-color:#6567E7"/>
							<stop  offset="1" style="stop-color:#4776E6"/>
						</linearGradient>
						<path style="fill:url(#SVGID_00000096045882211628977360000004958843744314350737_);" d="M331.88,264.582
							c-3.921-3.921-9.762-4.781-14.531-2.59c-1.331,0.624-2.591,1.484-3.686,2.59s-1.966,2.367-2.591,3.697
							c-2.19,4.757-1.331,10.598,2.591,14.519c5.028,5.028,13.188,5.028,18.216,0C336.908,277.771,336.908,269.61,331.88,264.582z
							 M327.44,278.359c-2.579,2.579-6.759,2.579-9.338,0c-1.366-1.366-2.002-3.179-1.919-4.969c0.071-1.59,0.718-3.156,1.919-4.357
							c1.225-1.225,2.791-1.861,4.368-1.919c1.79-0.082,3.603,0.553,4.969,1.919C330.019,271.6,330.019,275.781,327.44,278.359z"/>
					</g>
				</g>
			</g>
			<g>
				<path style="fill:none;stroke:#F2F2F2;stroke-width:10;stroke-miterlimit:10;" d="M331.211,172.079"/>
			</g>
			<path style="fill:none;stroke:#F2F2F2;stroke-width:10;stroke-miterlimit:10;" d="M328.184,164.61"/>
			
				<linearGradient id="SVGID_00000015336428270193050920000012654029165400812468_" gradientUnits="userSpaceOnUse" x1="355.7442" y1="54.0768" x2="217.4604" y2="246.1375">
				<stop  offset="0" style="stop-color:#4776E6"/>
				<stop  offset="0.1822" style="stop-color:#477CE6"/>
				<stop  offset="0.4228" style="stop-color:#478DE6"/>
				<stop  offset="0.6962" style="stop-color:#47A8E6"/>
				<stop  offset="0.9918" style="stop-color:#47CEE6"/>
				<stop  offset="1" style="stop-color:#47CFE6"/>
			</linearGradient>
			<path style="fill:url(#SVGID_00000015336428270193050920000012654029165400812468_);" d="M287.063,170.145
				c-1.884-2.284-3.992-4.392-6.276-6.288c-8.349-6.959-19.076-11.139-30.78-11.139c-26.577,0-48.208,21.619-48.208,48.208
				c0,11.363,3.921,22.149,11.128,30.792c0.871,1.048,1.79,2.061,2.755,3.05c1.119,1.142,2.296,2.226,3.509,3.238
				c3.886,3.238,8.254,5.829,13.023,7.725c5.664,2.261,11.646,3.391,17.792,3.391c6.135,0,12.117-1.13,17.78-3.391
				c6.253-2.473,11.811-6.17,16.544-10.963l1.272-1.307v-0.047c8.137-8.902,12.599-20.359,12.599-32.488
				C298.202,189.233,294.022,178.506,287.063,170.145z M264.514,237.476c-4.616,1.837-9.503,2.767-14.507,2.767
				c-5.016,0-9.903-0.93-14.519-2.767c-3.009-1.199-5.888-2.785-8.522-4.7c4.106-9.014,13.028-14.806,22.986-14.825
				c0.015,0,0.029,0.002,0.043,0.002h0.012c0.014,0,0.028-0.002,0.043-0.002c9.959,0.019,18.886,5.818,22.998,14.841
				C270.422,234.698,267.562,236.264,264.514,237.476z M241.858,200.926c0-4.498,3.65-8.148,8.148-8.148
				c4.486,0,8.137,3.65,8.137,8.148c0,2.155-0.836,4.18-2.343,5.711l-0.13,0.13c-0.765,0.742-1.684,1.342-2.661,1.731
				c-0.965,0.377-1.99,0.565-3.014,0.565s-2.049-0.188-3.003-0.565c-1.036-0.412-2.002-1.06-2.791-1.861
				C242.694,205.106,241.858,203.069,241.858,200.926z M279.833,226.501c-0.003,0.003-0.006,0.007-0.009,0.01
				c-3.776-6.719-9.64-11.865-16.574-14.772l0.016-0.016l0.141-0.141v-0.153c2.343-2.991,3.627-6.653,3.627-10.504
				c0-9.397-7.642-17.039-17.027-17.039c-9.397,0-17.039,7.642-17.039,17.039c0,3.968,1.354,7.736,3.839,10.774
				c0.003,0.004,0.006,0.007,0.009,0.01c-6.968,2.903-12.858,8.064-16.642,14.809c-0.002-0.002-0.004-0.004-0.006-0.007
				c-6.135-7.124-9.479-16.109-9.479-25.588c0-21.69,17.639-39.329,39.317-39.329s39.306,17.639,39.306,39.329
				C289.312,210.405,285.98,219.389,279.833,226.501z"/>
		</g>
	</g>
</g>
<g id="Texts">
	<text transform="matrix(1 0 0 1 159.8602 335.3857)" style="fill:#4776E6; font-family:'Poppins-Bold'; font-size:35.2253px;">hub Logo</text>
	<g>
		<text transform="matrix(1 0 0 1 184.2272 359.6008)" style="fill:#333333; font-family:'Poppins-Regular'; font-size:13.9946px;">your tagline here</text>
	</g>
</g>
</svg>
